<svg t="1745999677334" class="icon" viewBox="0 0 1024 1024" version="1.1" xmlns="http://www.w3.org/2000/svg" p-id="2694" ><path d="M996.762893 226.170407a27.205101 27.205101 0 0 0 27.205101-27.205101V27.25311a27.205101 27.205101 0 0 0-27.205101-27.205101H825.082703a27.205101 27.205101 0 0 0-27.205101 27.205101V198.917297c0 0.240045 0.128024 0.432081 0.128024 0.672126-0.240045 0-0.432081-0.128024-0.672126-0.128024h-171.712196c-0.240045 0-0.432081 0.128024-0.672126 0.128024 0-0.240045 0.128024-0.432081 0.128024-0.672126V27.25311a27.205101 27.205101 0 0 0-27.205101-27.205101H426.159905a27.205101 27.205101 0 0 0-27.205101 27.205101V198.917297c0 0.240045 0.128024 0.432081 0.128024 0.672126-0.240045 0-0.432081-0.128024-0.672126-0.128024h-171.712196c-0.240045 0-0.432081 0.128024-0.672126 0.128024 0-0.240045 0.128024-0.432081 0.128024-0.672126V27.25311a27.205101 27.205101 0 0 0-27.205101-27.205101H27.237107a27.205101 27.205101 0 0 0-27.205101 27.205101V198.917297a27.205101 27.205101 0 0 0 27.205101 27.205101h171.696193c0.240045 0 0.432081-0.128024 0.672126-0.144027 0 0.240045-0.128024 0.432081-0.128024 0.672126v171.728199c0 0.240045 0.128024 0.432081 0.128024 0.672126-0.240045 0-0.432081-0.144027-0.672126-0.144027H27.237107a27.205101 27.205101 0 0 0-27.205101 27.205101v171.728199a27.205101 27.205101 0 0 0 27.205101 27.205101h171.696193c0.240045 0 0.432081-0.128024 0.672126-0.128024 0 0.240045-0.128024 0.432081-0.128024 0.672126v171.712196c0 0.240045 0.128024 0.432081 0.128024 0.672126-0.240045 0-0.432081-0.128024-0.672126-0.128024H27.237107a27.205101 27.205101 0 0 0-27.205101 27.205101v171.712196a27.205101 27.205101 0 0 0 27.205101 27.205101h171.696193a27.205101 27.205101 0 0 0 27.205101-27.205101V825.082703c0-0.240045-0.128024-0.432081-0.128024-0.672126 0.240045 0 0.432081 0.128024 0.672126 0.128024h171.696193c0.240045 0 0.432081-0.128024 0.672126-0.128024 0 0.240045-0.128024 0.432081-0.128024 0.672126v171.68019a27.205101 27.205101 0 0 0 27.205101 27.205101h171.712196a27.205101 27.205101 0 0 0 27.205101-27.205101V825.082703c0-0.240045-0.128024-0.432081-0.128024-0.672126 0.240045 0 0.432081 0.128024 0.672126 0.128024h171.712196c0.240045 0 0.432081-0.128024 0.672126-0.144027 0 0.240045-0.128024 0.432081-0.128024 0.672126v171.696193a27.205101 27.205101 0 0 0 27.205101 27.205101h171.712196a27.205101 27.205101 0 0 0 27.205101-27.205101V825.082703a27.205101 27.205101 0 0 0-27.205101-27.205101H825.082703c-0.240045 0-0.432081 0.128024-0.672126 0.128024 0-0.240045 0.128024-0.432081 0.128024-0.672126v-171.712196c0-0.240045-0.128024-0.432081-0.128024-0.672126 0.240045 0 0.432081 0.128024 0.672126 0.128024h171.68019a27.205101 27.205101 0 0 0 27.205101-27.205101V426.159905a27.205101 27.205101 0 0 0-27.205101-27.205101H825.082703c-0.240045 0-0.432081 0.128024-0.672126 0.144027 0-0.240045 0.128024-0.432081 0.128024-0.672126V226.698506c0-0.240045-0.128024-0.432081-0.128024-0.672126 0.240045 0 0.432081 0.144027 0.672126 0.144027z m-398.922798 0c0.240045 0 0.432081-0.128024 0.672126-0.144027 0 0.240045-0.128024 0.432081-0.128024 0.672126v171.68019c0 0.240045 0.128024 0.432081 0.128024 0.672126-0.240045 0-0.432081-0.144027-0.672126-0.144027H426.159905c-0.240045 0-0.432081 0.128024-0.672126 0.144027 0-0.240045 0.128024-0.432081 0.128024-0.672126V226.698506c0-0.240045-0.128024-0.432081-0.128024-0.672126 0.240045 0 0.432081 0.144027 0.672126 0.144027zM226.698506 598.368194c-0.240045 0-0.432081 0.128024-0.672126 0.128024 0-0.240045 0.128024-0.432081 0.128024-0.672126V426.159905c0-0.240045-0.128024-0.432081-0.128024-0.672126 0.240045 0 0.432081 0.128024 0.672126 0.128024h171.68019c0.240045 0 0.432081-0.128024 0.672126-0.128024 0 0.240045-0.128024 0.432081-0.128024 0.672126v171.68019c0 0.240045 0.128024 0.432081 0.128024 0.672126-0.240045 0-0.432081-0.128024-0.672126-0.128024zM426.159905 797.829593c-0.240045 0-0.432081 0.128024-0.672126 0.128024 0-0.240045 0.128024-0.432081 0.128024-0.672126V625.621304c0-0.240045-0.128024-0.432081-0.128024-0.672126 0.240045 0 0.432081 0.128024 0.672126 0.128024h171.68019c0.240045 0 0.432081-0.128024 0.672126-0.128024 0 0.240045-0.128024 0.432081-0.128024 0.672126v171.68019c0 0.240045 0.128024 0.432081 0.128024 0.672126-0.240045 0-0.432081-0.144027-0.672126-0.144027z m199.461399-199.461399c-0.240045 0-0.432081 0.128024-0.672126 0.128024 0-0.240045 0.128024-0.432081 0.128024-0.672126V426.159905c0-0.240045-0.128024-0.432081-0.128024-0.672126 0.240045 0 0.432081 0.128024 0.672126 0.128024h171.68019c0.240045 0 0.432081-0.128024 0.672126-0.128024 0 0.240045-0.128024 0.432081-0.128024 0.672126v171.68019c0 0.240045 0.128024 0.432081 0.128024 0.672126-0.240045 0-0.432081-0.128024-0.672126-0.128024z" p-id="2695"></path></svg>