<svg t="1693574901575" class="icon" viewBox="0 0 1024 1024" version="1.1" xmlns="http://www.w3.org/2000/svg" p-id="4043" xmlns:xlink="http://www.w3.org/1999/xlink" ><path d="M940.64 82.56C888 29.984 818.688 0 750.368 0c-57.632 0-110.688 21.376-149.44 60.064l-155.744 156.928c-0.48 0.448-1.024 0.736-1.504 1.216-0.256 0.256-0.416 0.608-0.672 0.832l0.064 0.064L112.544 552.192a128.736 128.736 0 0 0-32.416 54.56L4.96 879.008C4.896 879.744 0 901.12 0 912 0 973.824 50.208 1024 112.128 1024c12.32 0 36.16-5.888 37.024-6.016l271.296-71.328a128.672 128.672 0 0 0 54.56-32.512l488.416-492.256c88.832-88.896 78.816-237.888-22.784-339.328zM512.448 761.44a260.64 260.64 0 0 0-23.008-84.064l302.56-302.528c18.496 58.432 8.992 119.552-31.552 160.128-0.256 0.256-0.576 0.416-0.8 0.672l0.448 0.416-247.296 249.28c0-7.968 0.384-15.776-0.352-23.904z m-39.072-113.248c-11.936-19.616-25.504-38.56-42.304-55.328-19.552-19.552-41.984-34.88-65.408-47.744l305.024-305.024a222.048 222.048 0 0 1 67.136 46.016 223.232 223.232 0 0 1 40.992 56.672l-305.44 305.408z m-137.824-118.208a255.232 255.232 0 0 0-91.776-19.168l246.496-248.384c37.728-36.8 92.672-47.392 146.784-33.984l-301.504 301.536zM133.344 955.936c-3.488 0.8-14.336 3.552-21.696 4.064A48.16 48.16 0 0 1 64 912c0.384-5.376 2.528-14.624 3.264-17.984l33.696-122.048c36.576-0.992 75.936 13.248 106.88 44.256 31.424 31.36 46.208 71.488 44.608 108.512l-119.104 31.2z m150.624-39.552c-0.768-42.944-18.24-87.616-53.504-122.816-33.344-33.376-76.992-52.64-120.512-54.368l31.872-115.424c2.304-7.68 6.88-15.264 12.512-21.888 64.192-45.952 162.912-32.384 231.488 36.256 72.544 72.512 83.744 178.752 27.872 242.176a63.04 63.04 0 0 1-11.488 4.992l-118.24 31.072z m634.144-539.68l-53.888 54.304c0-7.232 0.864-14.176 0.192-21.568-5.632-61.92-34.496-121.792-81.376-168.608-52.128-52.16-121.248-82.08-189.696-82.272l52.992-53.44C672.864 78.656 709.888 64 750.368 64c51.488 0 104.384 23.296 145.056 63.84 38.176 38.112 60.928 85.472 64.192 133.376 3.008 44.704-11.744 85.696-41.504 115.488z" fill="#2c2c2c" p-id="4044"></path></svg>