<?xml version="1.0" standalone="no"?><!DOCTYPE svg PUBLIC "-//W3C//DTD SVG 1.1//EN" "http://www.w3.org/Graphics/SVG/1.1/DTD/svg11.dtd"><svg t="1695129803354" class="icon" viewBox="0 0 1024 1024" version="1.1" xmlns="http://www.w3.org/2000/svg" p-id="4003" xmlns:xlink="http://www.w3.org/1999/xlink"><path d="M1006.933333 0h-68.266666c-10.24 0-17.066667 6.826667-17.066667 17.066667v68.266666c0 10.24 6.826667 17.066667 17.066667 17.066667h68.266666c10.24 0 17.066667-6.826667 17.066667-17.066667v-68.266666c0-10.24-6.826667-17.066667-17.066667-17.066667zM85.333333 0h-68.266666C6.826667 0 0 6.826667 0 17.066667v68.266666c0 10.24 6.826667 17.066667 17.066667 17.066667h68.266666c10.24 0 17.066667-6.826667 17.066667-17.066667v-68.266666c0-10.24-6.826667-17.066667-17.066667-17.066667zM1006.933333 921.6h-68.266666c-10.24 0-17.066667 6.826667-17.066667 17.066667v68.266666c0 10.24 6.826667 17.066667 17.066667 17.066667h68.266666c10.24 0 17.066667-6.826667 17.066667-17.066667v-68.266666c0-10.24-6.826667-17.066667-17.066667-17.066667zM85.333333 921.6h-68.266666c-10.24 0-17.066667 6.826667-17.066667 17.066667v68.266666c0 10.24 6.826667 17.066667 17.066667 17.066667h68.266666c10.24 0 17.066667-6.826667 17.066667-17.066667v-68.266666c0-10.24-6.826667-17.066667-17.066667-17.066667zM597.333333 785.066667H546.133333V238.933333h204.8v51.2c0 10.24 6.826667 17.066667 17.066667 17.066667s17.066667-6.826667 17.066667-17.066667v-68.266666c0-10.24-6.826667-17.066667-17.066667-17.066667h-477.866667c-10.24 0-17.066667 6.826667-17.066666 17.066667v68.266666c0 10.24 6.826667 17.066667 17.066666 17.066667s17.066667-6.826667 17.066667-17.066667V238.933333h204.8v546.133334h-51.2c-10.24 0-17.066667 6.826667-17.066667 17.066666s6.826667 17.066667 17.066667 17.066667h136.533333c10.24 0 17.066667-6.826667 17.066667-17.066667s-6.826667-17.066667-17.066667-17.066666zM802.133333 34.133333h-102.4c-10.24 0-17.066667 6.826667-17.066666 17.066667s6.826667 17.066667 17.066666 17.066667h102.4c10.24 0 17.066667-6.826667 17.066667-17.066667s-6.826667-17.066667-17.066667-17.066667zM460.8 68.266667h102.4c10.24 0 17.066667-6.826667 17.066667-17.066667s-6.826667-17.066667-17.066667-17.066667h-102.4c-10.24 0-17.066667 6.826667-17.066667 17.066667s6.826667 17.066667 17.066667 17.066667zM221.866667 68.266667h102.4c10.24 0 17.066667-6.826667 17.066666-17.066667S334.506667 34.133333 324.266667 34.133333h-102.4c-10.24 0-17.066667 6.826667-17.066667 17.066667s6.826667 17.066667 17.066667 17.066667zM802.133333 955.733333h-102.4c-10.24 0-17.066667 6.826667-17.066666 17.066667s6.826667 17.066667 17.066666 17.066667h102.4c10.24 0 17.066667-6.826667 17.066667-17.066667s-6.826667-17.066667-17.066667-17.066667zM563.2 955.733333h-102.4c-10.24 0-17.066667 6.826667-17.066667 17.066667s6.826667 17.066667 17.066667 17.066667h102.4c10.24 0 17.066667-6.826667 17.066667-17.066667s-6.826667-17.066667-17.066667-17.066667zM324.266667 955.733333h-102.4c-10.24 0-17.066667 6.826667-17.066667 17.066667s6.826667 17.066667 17.066667 17.066667h102.4c10.24 0 17.066667-6.826667 17.066666-17.066667s-6.826667-17.066667-17.066666-17.066667zM955.733333 802.133333c0 10.24 6.826667 17.066667 17.066667 17.066667s17.066667-6.826667 17.066667-17.066667v-102.4c0-10.24-6.826667-17.066667-17.066667-17.066666s-17.066667 6.826667-17.066667 17.066666v102.4zM955.733333 563.2c0 10.24 6.826667 17.066667 17.066667 17.066667s17.066667-6.826667 17.066667-17.066667v-102.4c0-10.24-6.826667-17.066667-17.066667-17.066667s-17.066667 6.826667-17.066667 17.066667v102.4zM972.8 341.333333c10.24 0 17.066667-6.826667 17.066667-17.066666v-102.4c0-10.24-6.826667-17.066667-17.066667-17.066667s-17.066667 6.826667-17.066667 17.066667v102.4c0 10.24 6.826667 17.066667 17.066667 17.066666zM34.133333 802.133333c0 10.24 6.826667 17.066667 17.066667 17.066667s17.066667-6.826667 17.066667-17.066667v-102.4c0-10.24-6.826667-17.066667-17.066667-17.066666s-17.066667 6.826667-17.066667 17.066666v102.4zM34.133333 563.2c0 10.24 6.826667 17.066667 17.066667 17.066667s17.066667-6.826667 17.066667-17.066667v-102.4c0-10.24-6.826667-17.066667-17.066667-17.066667s-17.066667 6.826667-17.066667 17.066667v102.4zM51.2 341.333333c10.24 0 17.066667-6.826667 17.066667-17.066666v-102.4c0-10.24-6.826667-17.066667-17.066667-17.066667s-17.066667 6.826667-17.066667 17.066667v102.4c0 10.24 6.826667 17.066667 17.066667 17.066666z" fill="" p-id="4004"></path></svg>